<svg width="800" height="600" xmlns="http://www.w3.org/2000/svg">
 <!-- Created with Method Draw - http://github.com/duopixel/Method-Draw/ -->

 <g>
  <title>background</title>
  <rect fill="#fff" id="canvas_background" height="602" width="802" y="-1" x="-1"/>
  <g display="none" overflow="visible" y="0" x="0" height="100%" width="100%" id="canvasGrid">
   <rect fill="url(#gridpattern)" stroke-width="0" y="0" x="0" height="100%" width="100%"/>
  </g>
 </g>
 <g>
  <title>Layer 1</title>
  <path stroke="#7AD6CA" id="svg_3" d="m-11.99997,380.24481c313.54839,101.59612 -6.59677,221.22487 303.75,114.66346c8.65323,-6.43859 169.18549,-35.36892 -9.79838,38.9697c-178.98387,74.33863 265.20968,-56.99294 164.6129,-106.55203c-100.59677,-49.55908 -458.56452,361.78131 -205.1129,59.4709c253.45161,-302.31041 -602.2742,-297.3545 -10.45162,-132.57055c591.82259,164.78396 312.24194,-552.58378 282.19355,-52.03703c-30.04838,500.54674 252.14516,147.43827 251.49194,146.87686c0.65322,0.56141 -350.78226,100.91855 33.31452,-143.15993" stroke-width="4.5" fill="#fff"/>
 </g>
</svg>